<svg width="19" height="19" viewBox="0 0 19 19" fill="none" xmlns="http://www.w3.org/2000/svg">
  <path fill-rule="evenodd" clip-rule="evenodd" d="M8.46013 0.937764H8.45923C7.03917 1.33382 5.81177 1.78808 4.75573 2.27615C3.68286 2.77242 2.78519 3.30397 2.03941 3.84843C1.25545 4.41968 0.535896 5.13379 0.335316 5.91727C0.13418 6.69794 0.421341 7.67366 0.830013 8.55574C1.22804 9.39091 1.75628 10.2927 2.45316 11.2499C2.42478 10.9764 2.43354 10.7146 2.4864 10.4734C2.65109 9.71079 3.29422 9.02586 3.99417 8.48049C4.5048 8.08528 5.09367 7.69982 5.77059 7.33469C6.86537 6.74549 8.18993 6.20608 9.78664 5.75975C11.385 5.31221 12.7989 5.08645 14.0351 5.02417C14.0614 4.24827 14.0238 3.54061 13.9395 2.89909C13.8229 2.013 13.5552 1.11016 12.9827 0.582952C12.7989 0.414838 12.5736 0.27513 12.322 0.161652C11.1646 0.29098 9.88144 0.539749 8.46013 0.937764Z" fill="url(#paint0_linear)"/>
  <path fill-rule="evenodd" clip-rule="evenodd" d="M14.2741 0.0478821H14.2544H14.2262C13.6342 0.0489341 12.9996 0.0847029 12.322 0.161641C12.5736 0.275119 12.7989 0.414828 12.9827 0.582941C13.5552 1.11014 13.8229 2.01299 13.9395 2.89907C14.0238 3.5406 14.0614 4.24826 14.0351 5.02416C13.9946 6.2727 13.7964 7.69868 13.3815 9.31627V9.31719C12.9657 10.936 12.4535 12.2813 11.8888 13.3943C12.5403 13.8027 13.1666 14.1243 13.759 14.3716C14.5771 14.7115 15.4853 14.9293 16.2255 14.6935C16.4625 14.6173 16.6932 14.4886 16.9185 14.326C17.3853 13.2515 17.8115 12.0078 18.1809 10.5725C18.5511 9.12747 18.7701 7.82366 18.878 6.65059C18.9838 5.47309 18.9765 4.42703 18.8923 3.5056C18.8036 2.53515 18.5375 1.5508 17.9669 0.984884C17.396 0.418334 16.4138 0.181068 15.4518 0.0978882C15.0796 0.0656963 14.687 0.0484432 14.2741 0.0478821Z" fill="url(#paint1_linear)"/>
  <path fill-rule="evenodd" clip-rule="evenodd" d="M3.99422 8.48048C3.29427 9.02585 2.65114 9.71078 2.48645 10.4734C2.43359 10.7146 2.42483 10.9764 2.45321 11.2499C3.14175 12.198 3.99422 13.2003 5.04851 14.2455C6.09836 15.2851 7.10043 16.1277 8.04651 16.8065C9.00135 17.4904 9.89985 18.0069 10.7349 18.3859C11.6243 18.7902 12.6071 19.0688 13.3859 18.8513C14.1664 18.6331 14.8669 17.8844 15.4232 17.0767C15.9439 16.3167 16.4512 15.408 16.9186 14.326C16.6932 14.4886 16.4625 14.6173 16.2255 14.6935C15.4853 14.9293 14.5771 14.7115 13.759 14.3716C13.1667 14.1243 12.5404 13.8027 11.8888 13.3943C10.8334 12.734 9.70859 11.8462 8.52493 10.6749V10.6739C7.3444 9.50326 6.4427 8.38425 5.77064 7.33469C5.09372 7.69981 4.50485 8.08527 3.99422 8.48048Z" fill="url(#paint2_linear)"/>
  <path fill-rule="evenodd" clip-rule="evenodd" d="M8.52489 0.887171L8.52336 0.888012C7.10567 1.28441 5.87973 1.73889 4.82425 2.2252C3.7543 2.72001 2.85837 3.25037 2.11259 3.79398C1.33009 4.36579 0.612622 5.07661 0.413224 5.85903C0.212296 6.63956 0.498359 7.61275 0.907309 8.49274C1.30478 9.32734 1.83127 10.227 2.52551 11.1813C2.4995 10.9097 2.50735 10.6492 2.55931 10.4069C2.724 9.64519 3.36629 8.96096 4.06567 8.41769C4.57415 8.02283 5.16107 7.63863 5.838 7.2752C6.93041 6.68543 8.25317 6.14687 9.84557 5.70109H9.84764C11.4424 5.25573 12.8511 5.02941 14.0897 4.96818C14.1133 4.192 14.0765 3.487 13.9931 2.84667C13.8753 1.96262 13.6089 1.06153 13.0368 0.534883C12.855 0.36649 12.6296 0.226781 12.3779 0.113373C11.2234 0.243543 9.94272 0.491189 8.52489 0.887171Z" fill="url(#paint3_linear)"/>
  <path fill-rule="evenodd" clip-rule="evenodd" d="M14.3318 0H14.3124H14.2842C13.6913 0.00112216 13.0561 0.0371013 12.3779 0.113478C12.6296 0.226886 12.855 0.366595 13.0368 0.534989C13.6089 1.06163 13.8753 1.96272 13.9931 2.84677C14.0765 3.48711 14.1133 4.1921 14.0897 4.96828C14.0482 6.21423 13.8491 7.63783 13.4342 9.25128V9.25254C13.0199 10.8692 12.5098 12.2124 11.9462 13.3226C12.596 13.731 13.2199 14.052 13.8097 14.2981C14.6281 14.638 15.536 14.8544 16.273 14.6186C16.5115 14.543 16.743 14.4163 16.9668 14.2529C17.4305 13.18 17.8582 11.94 18.2258 10.5067C18.5963 9.06283 18.8153 7.76161 18.9203 6.59149C19.0281 5.41574 19.0197 4.37354 18.9354 3.45099C18.8468 2.48341 18.5832 1.50061 18.0141 0.936932C17.4439 0.371013 16.4625 0.133747 15.5019 0.0493048C15.1328 0.0180948 14.7413 0.000561079 14.3318 0V0Z" fill="url(#paint4_linear)"/>
  <path fill-rule="evenodd" clip-rule="evenodd" d="M4.06566 8.41777C3.36627 8.96103 2.72399 9.64527 2.55929 10.407C2.50734 10.6492 2.49949 10.9098 2.5255 11.1814C3.21404 12.129 4.06455 13.1286 5.11815 14.1732C6.16508 15.2104 7.16688 16.0531 8.11031 16.731C9.06279 17.4119 9.96012 17.9273 10.7931 18.3056C11.6806 18.7087 12.6625 18.9877 13.4403 18.769C14.2185 18.5517 14.9177 17.8035 15.473 16.9985C15.9937 16.2391 16.4981 15.3333 16.9669 14.2528C16.743 14.4163 16.5115 14.543 16.273 14.6186C15.536 14.8544 14.6281 14.638 13.8098 14.2981C13.2199 14.052 12.596 13.731 11.9462 13.3226C10.8925 12.6637 9.76892 11.7783 8.58992 10.6084H8.587C7.40855 9.43914 6.51088 8.32077 5.83799 7.27527C5.16107 7.63871 4.57414 8.02291 4.06566 8.41777Z" fill="url(#paint5_linear)"/>
  <defs>
  <linearGradient id="paint0_linear" x1="-0.338687" y1="8.34218" x2="18.5414" y2="3.15089" gradientUnits="userSpaceOnUse">
  <stop stop-color="#DE2A29"/>
  <stop offset="0.658824" stop-color="#9C2F2A"/>
  <stop offset="0.768627" stop-color="#652B26"/>
  <stop offset="1" stop-color="#652B26"/>
  </linearGradient>
  <linearGradient id="paint1_linear" x1="17.9269" y1="-0.154457" x2="12.8671" y2="18.5986" gradientUnits="userSpaceOnUse">
  <stop stop-color="#3AA7DC"/>
  <stop offset="0.709804" stop-color="#30667F"/>
  <stop offset="1" stop-color="#252422"/>
  </linearGradient>
  <linearGradient id="paint2_linear" x1="2.54668" y1="7.20094" x2="16.9057" y2="18.9429" gradientUnits="userSpaceOnUse">
  <stop stop-color="#504B4B"/>
  <stop offset="0.509804" stop-color="#999798"/>
  <stop offset="1" stop-color="#E3E3E5"/>
  </linearGradient>
  <linearGradient id="paint3_linear" x1="-0.259873" y1="8.27904" x2="18.5849" y2="3.09714" gradientUnits="userSpaceOnUse">
  <stop stop-color="#DC2729"/>
  <stop offset="0.670588" stop-color="#A92A28"/>
  <stop offset="0.768627" stop-color="#7C2925"/>
  <stop offset="1" stop-color="#7C2925"/>
  </linearGradient>
  <linearGradient id="paint4_linear" x1="17.9702" y1="-0.203461" x2="12.9258" y2="18.4917" gradientUnits="userSpaceOnUse">
  <stop stop-color="#267CBC"/>
  <stop offset="0.690196" stop-color="#3B4C60"/>
  <stop offset="0.901961" stop-color="#252422"/>
  <stop offset="1" stop-color="#252422"/>
  </linearGradient>
  <linearGradient id="paint5_linear" x1="2.62057" y1="7.14124" x2="16.9536" y2="18.8617" gradientUnits="userSpaceOnUse">
  <stop stop-color="#817E80"/>
  <stop offset="0.321569" stop-color="#B2B0B2"/>
  <stop offset="1" stop-color="#E3E3E5"/>
  </linearGradient>
  </defs>
</svg>
